<?xml version="1.0" encoding="UTF-8" standalone="no"?>
<!-- Created with Inkscape (http://www.inkscape.org/) -->

<svg
   xmlns:dc="http://purl.org/dc/elements/1.1/"
   xmlns:cc="http://creativecommons.org/ns#"
   xmlns:rdf="http://www.w3.org/1999/02/22-rdf-syntax-ns#"
   xmlns:svg="http://www.w3.org/2000/svg"
   xmlns="http://www.w3.org/2000/svg"
   xmlns:sodipodi="http://sodipodi.sourceforge.net/DTD/sodipodi-0.dtd"
   xmlns:inkscape="http://www.inkscape.org/namespaces/inkscape"
   width="210mm"
   height="297mm"
   viewBox="0 0 210 297"
   version="1.1"
   id="svg8"
   inkscape:version="0.92.4 (5da689c313, 2019-01-14)"
   sodipodi:docname="dibujo.svg">
  <defs
     id="defs2" />
  <sodipodi:namedview
     id="base"
     pagecolor="#ffffff"
     bordercolor="#666666"
     borderopacity="1.0"
     inkscape:pageopacity="0.0"
     inkscape:pageshadow="2"
     inkscape:zoom="0.35"
     inkscape:cx="400"
     inkscape:cy="560"
     inkscape:document-units="mm"
     inkscape:current-layer="layer1"
     showgrid="false"
     inkscape:window-width="1366"
     inkscape:window-height="706"
     inkscape:window-x="-8"
     inkscape:window-y="-8"
     inkscape:window-maximized="1" />
  <metadata
     id="metadata5">
    <rdf:RDF>
      <cc:Work
         rdf:about="">
        <dc:format>image/svg+xml</dc:format>
        <dc:type
           rdf:resource="http://purl.org/dc/dcmitype/StillImage" />
        <dc:title></dc:title>
      </cc:Work>
    </rdf:RDF>
  </metadata>
  <g
     inkscape:label="Capa 1"
     inkscape:groupmode="layer"
     id="layer1">
    <g
       aria-label="M"
       transform="scale(1.2170486,0.82165989)"
       style="font-style:normal;font-weight:normal;font-size:15.4112854px;line-height:1.25;font-family:sans-serif;letter-spacing:0px;word-spacing:0px;fill:#aa0000;fill-opacity:1;stroke:none;stroke-width:0.38528216"
       id="text3715">
      <path
         d="M 13.933093,16.451889 H 12.443135 V 6.7972605 L 9.3277675,13.366622 H 8.4398126 L 5.3470205,6.7972605 V 16.451889 H 3.9548877 V 5.2471019 H 5.986649 L 8.9740906,11.485362 11.863707,5.2471019 h 2.069386 z"
         style="stroke-width:0.38528216;fill:#aa0000"
         id="path3737"
         inkscape:connector-curvature="0" />
    </g>
    <g
       aria-label="A"
       transform="scale(0.83875796,1.1922391)"
       style="font-style:normal;font-weight:normal;font-size:16.72575569px;line-height:1.25;font-family:sans-serif;letter-spacing:0px;word-spacing:0px;fill:#aa4400;fill-opacity:1;stroke:none;stroke-width:0.4181439"
       id="text3719">
      <path
         d="m 30.997204,14.508515 h -1.72321 l -1.192363,-3.389252 h -5.259467 l -1.192363,3.389252 H 19.98826 L 24.414705,2.3480416 h 2.156054 z M 27.583451,9.7308947 25.451898,3.7609106 23.312177,9.7308947 Z"
         style="stroke-width:0.4181439;fill:#aa4400"
         id="path3734"
         inkscape:connector-curvature="0" />
    </g>
    <text
       xml:space="preserve"
       style="font-style:normal;font-weight:normal;font-size:16.64534569px;line-height:1.25;font-family:sans-serif;letter-spacing:0px;word-spacing:0px;fill:#000000;fill-opacity:1;stroke:none;stroke-width:0.41613364"
       x="45.180222"
       y="12.439991"
       id="text3723"
       transform="scale(0.63581335,1.5727886)"><tspan
         sodipodi:role="line"
         id="tspan3721"
         x="45.180222"
         y="12.439991"
         style="stroke-width:0.41613364">V</tspan></text>
    <g
       aria-label="G"
       transform="scale(0.80644441,1.2400111)"
       style="font-style:normal;font-weight:normal;font-size:24.69706535px;line-height:1.25;font-family:sans-serif;letter-spacing:0px;word-spacing:0px;fill:#00ffff;fill-opacity:1;stroke:none;stroke-width:0.61742663"
       id="text3727">
      <path
         d="m 61.734041,17.880908 q -1.471212,0.675311 -3.219783,1.181793 -1.736512,0.494424 -3.364493,0.494424 -2.098286,0 -3.846857,-0.578837 -1.748572,-0.578838 -2.978601,-1.736513 -1.242089,-1.169734 -1.917399,-2.918305 -0.675311,-1.760631 -0.675311,-4.112158 0,-4.3051039 2.508296,-6.7892813 2.520355,-2.49623662 6.909872,-2.49623662 1.531508,0 3.123311,0.37383252 1.603862,0.3617734 3.448906,1.2420887 V 5.3756071 H 61.504918 Q 61.131086,5.0861884 60.419598,4.6158829 59.70811,4.1455775 59.020741,3.8320405 58.188662,3.458208 57.12746,3.2170257 56.078317,2.9637843 54.739755,2.9637843 q -3.014778,0 -4.775409,1.9415174 -1.748571,1.9294582 -1.748571,5.2336553 0,3.485084 1.832985,5.426601 1.832985,1.929459 4.992473,1.929459 1.157675,0 2.303291,-0.229124 1.157675,-0.229123 2.025931,-0.590896 V 12.27342 h -4.811586 v -2.098286 h 7.175172 z"
         style="stroke-width:0.61742663;fill:#00ffff"
         id="path3731"
         inkscape:connector-curvature="0" />
    </g>
    <path
       style="fill:#00ffff;stroke-width:0.21170826"
       id="path3742"
       d="m 2.1119773,24.783165 c 3.0842858,-3.107121 7.6809564,-5.403421 11.6406107,-6.931535 1.337433,-0.454712 2.799941,-0.05495 4.055664,0.47244 1.254914,0.428685 2.133375,1.297707 2.803724,2.353502 0.614771,0.789844 0.930209,1.735869 1.531876,2.531411 0.533164,0.701234 1.151091,1.410183 1.920005,1.890721 1.153627,0.355519 2.377895,0.579224 3.578367,0.792706 1.039258,0.371192 1.877787,1.006091 2.974358,1.25537 1.262985,0.192353 2.550624,0.184008 3.826876,0.191985 0.53369,-0.166753 1.134113,-0.168848 1.664482,-0.340781 2.40685,-0.780241 12.070791,-6.373012 -6.675104,3.641178 0.8255,-0.44248 1.31427,-1.252263 1.934787,-1.904792 0.668223,-0.822897 1.262798,-1.695147 1.935169,-2.516185 2.815332,-3.162947 6.889922,-5.599094 11.203872,-6.398275 1.414139,-0.224739 2.066645,0.122145 3.09334,0.948129 0.696592,0.516087 1.417451,0.982206 2.185068,1.403485 0.741737,0.635921 1.556904,1.113158 2.518441,1.380021 0.562441,-0.0195 0.312883,0.05799 0.757279,-0.206257 0,0 -7.393451,5.264411 -7.393451,5.264411 v 0 c -0.669938,-0.06318 -0.329594,-0.0046 -1.018997,-0.185898 -0.969514,-0.375325 -1.820405,-0.910767 -2.642149,-1.521232 -0.77692,-0.471457 -1.543682,-0.946745 -2.255758,-1.503963 -0.776826,-0.579035 -1.62411,-0.560688 -2.559742,-0.284798 -2.879285,0.969369 -7.507686,3.939278 6.16023,-3.570834 0.194568,-0.106909 -0.391582,0.211693 -0.572849,0.337655 -0.49041,0.340785 -0.595389,0.498527 -0.996697,0.926314 -0.703592,0.792533 -1.350015,1.63321 -1.903919,2.519146 -0.596811,0.729782 -1.278913,1.389303 -1.809563,2.168291 -3.63852,1.957276 -6.831134,4.864116 -11.085917,4.936639 -1.339038,-0.02743 -2.705353,-0.02903 -4.003459,-0.374905 C 21.974233,31.713938 21.12468,31.087878 20.082222,30.852741 18.784451,30.588013 17.391504,30.432117 16.24999,29.760161 15.456223,29.153089 14.733882,28.428037 14.163786,27.628349 13.57746,26.7998 13.219514,25.861753 12.625658,25.037361 12.04272,24.119398 11.230088,23.509837 10.144376,23.171959 8.9060131,22.796326 7.7460413,22.629923 6.5526583,23.248896 3.5620838,24.74548 4.5252086,24.273774 13.062725,19.645905 c 0.23538,-0.127591 -0.454723,0.279825 -0.683628,0.41748 -0.641132,0.385552 -0.706829,0.379911 -1.276549,0.850638 -0.168527,0.139245 -0.320144,0.29567 -0.480215,0.443504 0,0 -8.5103557,3.425634 -8.5103557,3.425634 z"
       inkscape:connector-curvature="0" />
  </g>
</svg>
